<svg xmlns="http://www.w3.org/2000/svg" width="1200" height="1200" viewBox="0 0 1200 1200">
  <defs>
    <radialGradient id="glow" cx="50%" cy="8%" r="60%">
      <stop offset="0%" stop-color="#ff6a4d" stop-opacity="0.24"/>
      <stop offset="60%" stop-color="#ff6a4d" stop-opacity="0"/>
    </radialGradient>
  </defs>
  <rect width="1200" height="1200" fill="#15110e"/>
  <rect width="1200" height="1200" fill="url(#glow)"/>

  <!-- content stack, centred on x=600 and y=600 (midpoint of the cropped 630 band) -->
  <g transform="translate(488,420.25) scale(3.5)">
    <path d="M29 22 L21 11 M35 22 L43 11" stroke="#ff6a4d" stroke-width="3" stroke-linecap="round"/>
    <rect x="13" y="22" width="38" height="28" rx="5" fill="none" stroke="#ff6a4d" stroke-width="3"/>
    <path d="M32 45 C 24 40 22 36 22 33 C 22 30.5 24 29 26.5 29 C 28.5 29 30.5 30.5 32 32.5 C 33.5 30.5 35.5 29 37.5 29 C 40 29 42 30.5 42 33 C 42 36 40 40 32 45 Z" fill="#ff6a4d"/>
  </g>

  <text x="600" y="689" text-anchor="middle" font-family="Bricolage Grotesque, Helvetica, Arial, sans-serif" font-size="92" font-weight="800" fill="#f3ede4" letter-spacing="-2">TV Time Archive</text>
  <text x="600" y="734" text-anchor="middle" font-family="Instrument Sans, Helvetica, Arial, sans-serif" font-size="32" font-weight="500" fill="#a89e92">Browse your TV Time data export locally in your browser.</text>
</svg>
